<svg t="1616681804305" class="icon" viewBox="0 0 1024 1024" version="1.1" xmlns="http://www.w3.org/2000/svg" p-id="2811" width="200" height="200"><path d="M739.54 383.81c0 23.59 19.11 42.67 42.67 42.67s42.67-19.08 42.67-42.67c0-70.59-57.42-128.01-128.01-128.01-23.56 0-42.67 19.08-42.67 42.67 0 23.59 19.11 42.67 42.67 42.67 23.52 0 42.67 19.12 42.67 42.67z" fill="#1A1A1A" p-id="2812"></path><path d="M682.64 142.01c-23.56 0-42.67 19.08-42.67 42.67s19.11 42.67 42.67 42.67c94.11 0 170.68 76.55 170.68 170.68 0 23.59 19.11 42.67 42.67 42.67 23.56 0 42.67-19.08 42.67-42.67 0-141.18-114.84-256.02-256.02-256.02zM738.7 475.49c2.94-43.56-10.71-82.3-39.75-106.99-20.21-17.17-59.34-36.93-123.56-18.72 1.6-51.43-20.56-83.14-38.1-100.05-44.73-43.1-121.48-50.45-186.64-17.88-98.56 49.3-265.38 184.68-265.38 379.53 0 134.29 127.02 270.24 369.8 270.24 277.87 0 381.29-159.04 392.17-177.17 32.42-54.03 25.39-129.91-16.71-180.44-24.06-28.89-56.17-45.42-91.83-48.52z m35.37 185.06c-3.33 5.54-84.13 135.73-319 135.73-137.9 0-284.46-64.81-284.46-184.9 0-153.52 142.73-265.45 218.21-303.19 14.88-7.44 31.38-11.11 46.59-11.11 17.31 0 32.96 4.75 42.67 14.1 17.42 16.79 15.61 52.38-4.96 97.65-7.81 17.2-3.39 37.47 10.86 49.86s34.95 13.93 50.89 3.79c56.46-35.92 95.33-40.43 108.81-28.95 11.43 9.72 15.24 39.56-0.26 75.7-6.72 15.71-3.43 33.92 8.36 46.28a42.638 42.638 0 0 0 45.85 10.47c28.7-10.76 51.38-6.51 67.34 12.64 18.67 22.42 22.75 59.16 9.1 81.93z" fill="#1A1A1A" p-id="2813"></path></svg>